<svg xmlns="http://www.w3.org/2000/svg" width="166.529" height="79.372" viewBox="0 0 166.529 79.372">
  <g id="generic_school_logo_white" data-name="generic school logo white" transform="translate(-422 327.686)">
    <path id="Path_14337" data-name="Path 14337" d="M134.3,61.849c.452-1.725,2.416-2.106,3.919-2.369A4.574,4.574,0,0,1,134.3,61.849Z" transform="translate(313.176 -387.166)" fill="#fff"/>
    <path id="Path_14338" data-name="Path 14338" d="M192.21,59.6c1.486.2,3.565.61,3.906,2.349A5.038,5.038,0,0,1,192.21,59.6Z" transform="translate(274.781 -387.245)" fill="#fff"/>
    <path id="Path_14339" data-name="Path 14339" d="M126.19,63.68c.206-1.732,1.8-2.659,3.208-3.37a7.185,7.185,0,0,1-1.152,2.406,8.851,8.851,0,0,1,2.706.337A5.484,5.484,0,0,1,126.19,63.68Z" transform="translate(318.553 -387.716)" fill="#fff"/>
    <path id="Path_14340" data-name="Path 14340" d="M199.514,60.69c1.452.543,2.939,1.567,3.124,3.242a5.206,5.206,0,0,1-4.748-.681,14.152,14.152,0,0,1,2.635-.32A7.677,7.677,0,0,1,199.514,60.69Z" transform="translate(271.015 -387.968)" fill="#fff"/>
    <path id="Path_14341" data-name="Path 14341" d="M207.6,64.7c1.412.782,3.026,1.941,2.942,3.754a6.764,6.764,0,0,1-5.018-1.041,8.652,8.652,0,0,1,2.9-.28A9.056,9.056,0,0,1,207.6,64.7Z" transform="translate(265.956 -390.627)" fill="#fff"/>
    <path id="Path_14342" data-name="Path 14342" d="M117.807,68.553c-.061-1.779,1.493-3.03,2.965-3.7a13.033,13.033,0,0,1-.839,2.4,16.3,16.3,0,0,1,2.78.131A5.561,5.561,0,0,1,117.807,68.553Z" transform="translate(324.113 -390.726)" fill="#fff"/>
    <path id="Path_14343" data-name="Path 14343" d="M109.652,74.125c-.307-1.847,1.227-3.259,2.622-4.175a8.643,8.643,0,0,1-.684,2.612,9.481,9.481,0,0,1,3.235-.064A7.213,7.213,0,0,1,109.652,74.125Z" transform="translate(329.544 -394.108)" fill="#fff"/>
    <path id="Path_14344" data-name="Path 14344" d="M216.1,70.07c1.4.893,2.874,2.315,2.595,4.135-1.766,0-3.768-.233-4.984-1.661a9.348,9.348,0,0,1,3.046.128A7.26,7.26,0,0,1,216.1,70.07Z" transform="translate(260.526 -394.187)" fill="#fff"/>
    <path id="Path_14345" data-name="Path 14345" d="M129.259,76.816a2.34,2.34,0,0,1,2.389.1,54.87,54.87,0,0,0,17.092,5.86,1.47,1.47,0,0,1,1.425,1.658c.1,6.9-.212,13.894-2.032,20.587a20.022,20.022,0,0,1-4.273,8.226,47.947,47.947,0,0,1-11.848,9.429c-.741.377-1.624.964-2.45.458a46.016,46.016,0,0,1-13.945-11.319,22.314,22.314,0,0,1-3.377-7.855A78.758,78.758,0,0,1,110.458,85.1c.037-.745-.057-1.735.772-2.093a30.805,30.805,0,0,1,3.289-.694c5.186-.984,10.029-3.191,14.74-5.493m-17.372,7.478a91.111,91.111,0,0,0,1.082,15.683c.66,3.741,1.5,7.629,3.734,10.78a46.188,46.188,0,0,0,13.56,11.174A44.781,44.781,0,0,0,143.4,111.458c2.16-2.581,3.121-5.887,3.862-9.109a83.516,83.516,0,0,0,1.5-18.116c-6.548-.735-12.651-3.42-18.5-6.312A56.206,56.206,0,0,1,111.887,84.294Z" transform="translate(328.984 -398.47)" fill="#fff"/>
    <path id="Path_14346" data-name="Path 14346" d="M223.616,76.31c1.281,1.055,2.74,2.625,2.194,4.431a6.619,6.619,0,0,1-5.19-2.16,6.976,6.976,0,0,1,3.414.536A6.5,6.5,0,0,1,223.616,76.31Z" transform="translate(255.945 -398.324)" fill="#fff"/>
    <path id="Path_14347" data-name="Path 14347" d="M102.086,80.806c-.731-1.837.789-3.542,2.18-4.536a7.728,7.728,0,0,1-.536,2.885,6.415,6.415,0,0,1,3.532-.546A7.965,7.965,0,0,1,102.086,80.806Z" transform="translate(334.66 -398.298)" fill="#fff"/>
    <path id="Path_14348" data-name="Path 14348" d="M94.51,87.118a5.515,5.515,0,0,1,2.072-3.488,11.627,11.627,0,0,1-.071,2.8,7.374,7.374,0,0,1,3.495-.751,7.306,7.306,0,0,1-5,2.7C94.443,88.22,94.53,87.573,94.51,87.118Z" transform="translate(339.557 -403.178)" fill="#fff"/>
    <path id="Path_14349" data-name="Path 14349" d="M230.9,83.61c1.277,1.088,2.669,3.1,1.732,4.762a7.106,7.106,0,0,1-5.115-2.682,6.652,6.652,0,0,1,3.457.711A12.666,12.666,0,0,1,230.9,83.61Z" transform="translate(251.37 -403.164)" fill="#fff"/>
    <path id="Path_14350" data-name="Path 14350" d="M123.48,96.084A64.74,64.74,0,0,0,138.89,90.5c5.008,2.3,10.113,4.506,15.559,5.543a74.833,74.833,0,0,1-1.7,16.165,16.991,16.991,0,0,1-2.662,6.241,41.088,41.088,0,0,1-11.046,9.328,40.545,40.545,0,0,1-8.118-5.988c-1.864-1.894-3.889-3.808-4.741-6.406-2.194-6.174-2.527-12.806-2.7-19.3m7.019,3.09c-.054.772-.057,1.547-.172,2.315-.519.5-1.864.283-1.692,1.3.057,4.172-.027,8.344.017,12.516a12.654,12.654,0,0,1,8.661.485c.66.27,1.385.859,2.113.441a11.755,11.755,0,0,1,4.452-1.4,17.068,17.068,0,0,1,5.254.462c-.013-4.425.071-8.849-.044-13.271-.6-.135-1.2-.273-1.8-.4-.168-.849.455-2.794-1-2.453a10.668,10.668,0,0,0-7.481,4.1A9.871,9.871,0,0,0,130.5,99.174Z" transform="translate(320.35 -407.732)" fill="#fff"/>
    <path id="Path_14351" data-name="Path 14351" d="M89.545,91.77a5.512,5.512,0,0,1,.249,3.343c.822-1.22,2.4-1.442,3.751-1.584a7.948,7.948,0,0,1-4.954,3.37c-.431-.094-.5-.634-.61-.984C87.817,94.368,88.733,93,89.545,91.77Z" transform="translate(343.899 -408.574)" fill="#fff"/>
    <path id="Path_14352" data-name="Path 14352" d="M237.27,94.736a7.214,7.214,0,0,1,.344-3.016c1.1,1.436,2.318,3.639,1,5.3-.967-.714-2.244-.8-3.185-1.543a10.377,10.377,0,0,1-1.83-1.955A6.353,6.353,0,0,1,237.27,94.736Z" transform="translate(247.339 -408.541)" fill="#fff"/>
    <path id="Path_14353" data-name="Path 14353" d="M309.344,101.138a7.846,7.846,0,0,1,7.71-.4c.04.88.088,1.762.135,2.642a8.482,8.482,0,0,0-2.706-2.6,3.181,3.181,0,0,0-3.548.549c-1.156,1.243-1.257,3.063-1.163,4.671a4.559,4.559,0,0,0,2.258,3.923,4.207,4.207,0,0,0,2.844.061c.765-.772.512-2,.462-2.976-.448-.374-1.119-.293-1.645-.485l.334-.377a26.361,26.361,0,0,1,4.283.118c-.236.152-.711.452-.95.6a14.957,14.957,0,0,0,.057,3.225c-2.6.748-5.732,1.21-8.074-.462A5.4,5.4,0,0,1,309.344,101.138Z" transform="translate(198.49 -413.976)" fill="#fff"/>
    <path id="Path_14354" data-name="Path 14354" d="M486.191,100.14a8.872,8.872,0,0,1,5.105.519c.064.933.1,1.87.115,2.807-.822-.927-1.429-2.143-2.591-2.7a3,3,0,0,0-3.461.687,6.327,6.327,0,0,0-.96,4.576,4.749,4.749,0,0,0,2.251,3.929,3.129,3.129,0,0,0,3.333-.5,16.7,16.7,0,0,0,1.594-2.184c-.034.9-.081,1.8-.128,2.706a8.608,8.608,0,0,1-6.7.192,5.374,5.374,0,0,1-2.47-7.083A5.712,5.712,0,0,1,486.191,100.14Z" transform="translate(82.806 -414)" fill="#fff"/>
    <path id="Path_14355" data-name="Path 14355" d="M340.127,100.977c2.733-.017,5.473-.064,8.206.034-.007.893-.01,1.786,0,2.679-.772-1.105-1.712-2.433-3.215-2.433-.4.027-1.1-.051-1.149.5a37.045,37.045,0,0,0-.1,3.919,19.583,19.583,0,0,0,3.491-.317c0,.239,0,.711,0,.95-1.156-.024-2.312-.078-3.468-.1.094,1.378-.3,2.885.246,4.179,1.992.7,3.734-.849,4.748-2.4a4.01,4.01,0,0,0,.664,2.726c.627-.337,1.351-.768,1.4-1.57.192-2.248-.01-4.512.1-6.763a12.591,12.591,0,0,0-2.069-1.422c1.2,0,2.4,0,3.6,0,2.049,2.315,4.121,4.62,6.281,6.831a48.766,48.766,0,0,0-.1-5.348c-.111-.876-1.065-1.1-1.709-1.476a24.688,24.688,0,0,1,3.835.1c-.607.4-1.469.758-1.469,1.621-.189,2.932.024,5.877-.1,8.812-2.753-2.709-5.115-5.793-7.842-8.529,0,2.022-.108,4.054.034,6.073.027,1.075,1.149,1.385,1.874,1.921a15.84,15.84,0,0,1-4.3-.054,88.617,88.617,0,0,1-8.977.128,16.245,16.245,0,0,0,1.479-.816,18.248,18.248,0,0,0,.206-4.2A29.664,29.664,0,0,0,341.66,102C341.593,101.244,340.626,101.311,340.127,100.977Z" transform="translate(176.728 -414.655)" fill="#fff"/>
    <path id="Path_14356" data-name="Path 14356" d="M402.5,101.078c2.645-.246,5.318-.091,7.97-.077-.007.9-.013,1.8,0,2.7a6.1,6.1,0,0,0-2.12-2.184,4.367,4.367,0,0,0-2.2-.172,32.115,32.115,0,0,0-.118,4.374,22.749,22.749,0,0,0,3.444-.367c0,.246.013.731.017.974-1.156-.037-2.308-.091-3.464-.111a30.112,30.112,0,0,0,.077,3.821c.131.63.954.475,1.425.492,1.6-.067,2.682-1.405,3.532-2.608-.047,1.038-.081,2.079-.125,3.12-2.9.047-5.81.067-8.711-.01.553-.388,1.587-.431,1.621-1.284.121-2.473.088-4.967.02-7.441C403.945,101.463,403.079,101.341,402.5,101.078Z" transform="translate(135.535 -414.655)" fill="#fff"/>
    <path id="Path_14357" data-name="Path 14357" d="M430.32,101.069a57.917,57.917,0,0,1,5.975-.091c1.213.02,2.912.549,2.912,2.025.04,1.277-1.041,2.116-1.995,2.753,1.105,1.756,2.1,3.794,3.99,4.832.644.226,1.971.435,2.046-.532.081-2.588.037-5.183.02-7.774.155-.964-1-.977-1.6-1.291,1.837-.044,3.677-.057,5.513.013a9.461,9.461,0,0,0-1.527.634,13.974,13.974,0,0,0-.172,3.356c.047,1.685-.1,3.38.067,5.058.027.8,1.105.627,1.628.906a75.257,75.257,0,0,1-8.805.024,20.943,20.943,0,0,1-2.851-4.586q-.672-.025-1.345-.04c.017,1.257-.074,2.517.047,3.768.111.711,1.014.566,1.5.853a30.483,30.483,0,0,1-5.405,0c.482-.31,1.513-.131,1.516-.923a74.055,74.055,0,0,0-.017-8.067c.034-.792-1.038-.634-1.5-.92m3.919.9c-.142,1.287-.04,2.585-.057,3.875.832-.1,1.978.057,2.436-.839a3.651,3.651,0,0,0,.034-2.682C436.322,101.429,434.735,101.123,434.239,101.968Z" transform="translate(116.911 -414.658)" fill="#fff"/>
    <path id="Path_14358" data-name="Path 14358" d="M83.412,101.97c1.024.334.748,1.87.994,2.74a6.642,6.642,0,0,1,3.643-1.692,6.516,6.516,0,0,1-3.963,3.511l-.792.762C81.8,105.839,82.62,103.574,83.412,101.97Z" transform="translate(347.545 -415.337)" fill="#fff"/>
    <path id="Path_14359" data-name="Path 14359" d="M242.78,104.059a7.151,7.151,0,0,1,.819-2.989c.863,1.678,1.857,4.03.3,5.614a5.053,5.053,0,0,0-1.611-1.055,7.4,7.4,0,0,1-3.178-3.161A6.37,6.37,0,0,1,242.78,104.059Z" transform="translate(243.686 -414.74)" fill="#fff"/>
    <path id="Path_14360" data-name="Path 14360" d="M78.879,117.387c-1.678-1.291-1.277-4.024-.2-5.6a9.516,9.516,0,0,1,1.008,2.992,5.936,5.936,0,0,1,3.629-2.207,7,7,0,0,1-2.827,3.6A10.659,10.659,0,0,0,78.879,117.387Z" transform="translate(350.673 -421.848)" fill="#fff"/>
    <path id="Path_14361" data-name="Path 14361" d="M247.536,115.044c.317-.9.313-2.47,1.338-2.8.657,1.671,1.041,3.869-.256,5.338-.735.222-.977-.755-1.584-.967a6.863,6.863,0,0,1-3.083-3.754A6.251,6.251,0,0,1,247.536,115.044Z" transform="translate(240.477 -422.146)" fill="#fff"/>
    <path id="Path_14362" data-name="Path 14362" d="M76.064,128.784c-2.187-1.018-2.019-3.966-1.3-5.884a11.208,11.208,0,0,1,1.564,2.982,6.139,6.139,0,0,1,3.457-2.733,6.8,6.8,0,0,1-2.851,4.3C76.438,127.719,76.34,128.336,76.064,128.784Z" transform="translate(352.969 -429.214)" fill="#fff"/>
    <path id="Path_14363" data-name="Path 14363" d="M247.5,123.243a5.336,5.336,0,0,1,3.434,2.642,8.35,8.35,0,0,1,1.722-2.9,6.919,6.919,0,0,1-.071,4.627c-.33.5-.772,1.223-1.473,1.055-.138-.3-.266-.61-.388-.92A7.25,7.25,0,0,1,247.5,123.243Z" transform="translate(238.123 -429.267)" fill="#fff"/>
    <path id="Path_14364" data-name="Path 14364" d="M141.12,126.24c.32-.1.64-.209.96-.31.03,3.178-.017,6.352.03,9.527a9.94,9.94,0,0,1,6.453,2.612,13.452,13.452,0,0,0-7.444-.3Q141.125,132.006,141.12,126.24Z" transform="translate(308.654 -431.223)" fill="#fff"/>
    <path id="Path_14365" data-name="Path 14365" d="M179.967,126.09c.347.094.694.185,1.041.28.024,3.842.064,7.683.04,11.525a13.78,13.78,0,0,0-8.229.6,10.277,10.277,0,0,1,7.09-3.08C180.021,132.3,179.92,129.2,179.967,126.09Z" transform="translate(287.637 -431.329)" fill="#fff"/>
    <path id="Path_14366" data-name="Path 14366" d="M74.259,137.311a5.824,5.824,0,0,1,3.3-3.181c-.371,1.82-.944,3.855-2.635,4.886-.2.438-.189,1.109-.748,1.27-2.083-1.028-2.136-3.734-2.008-5.739A5.436,5.436,0,0,1,74.259,137.311Z" transform="translate(354.396 -436.66)" fill="#fff"/>
    <path id="Path_14367" data-name="Path 14367" d="M252.542,138.552a6.368,6.368,0,0,1-2.312-4.812,6.22,6.22,0,0,1,3.134,3.329,6.885,6.885,0,0,1,2.163-2.851c.162,2.083.078,5.156-2.366,5.87C252.953,139.59,253.074,138.866,252.542,138.552Z" transform="translate(236.313 -436.401)" fill="#fff"/>
    <path id="Path_14368" data-name="Path 14368" d="M73.571,148.4a5.934,5.934,0,0,1,2.9-3.747c-.125,1.732-.266,3.69-1.594,4.971-.556.445-.381,1.213-.654,1.8-.66.2-1.243-.347-1.688-.762a7.885,7.885,0,0,1-1.513-4.812A8.192,8.192,0,0,1,73.571,148.4Z" transform="translate(355.132 -443.635)" fill="#fff"/>
    <path id="Path_14369" data-name="Path 14369" d="M250.96,144.66a5.361,5.361,0,0,1,2.854,3.808,12.51,12.51,0,0,1,2.578-2.689c.044,2.275-.708,5.2-3.2,5.87-.067-.512-.115-1.024-.162-1.54C251.395,148.818,251.075,146.608,250.96,144.66Z" transform="translate(235.829 -443.641)" fill="#fff"/>
    <path id="Path_14370" data-name="Path 14370" d="M250.383,155.9a5.22,5.22,0,0,1,2.3,4.374,9.778,9.778,0,0,1,3.083-2.48c-.307,2.342-1.567,5.388-4.31,5.493.077-.522.165-1.038.249-1.554C250.164,160.207,250.185,157.905,250.383,155.9Z" transform="translate(236.274 -451.093)" fill="#fff"/>
    <path id="Path_14371" data-name="Path 14371" d="M74.722,160.188a5.814,5.814,0,0,1,2.325-4.4c.236,1.958.35,4.344-1.26,5.783.067.546.131,1.1.192,1.641-2.706-.192-3.963-3.158-4.249-5.5A9.524,9.524,0,0,1,74.722,160.188Z" transform="translate(354.661 -451.021)" fill="#fff"/>
    <path id="Path_14372" data-name="Path 14372" d="M344.49,157.2l.313-.027c1.493,2.955,2.693,6.059,4.256,8.977a2.9,2.9,0,0,0,2.042,1.321c-1.816.175-3.643.061-5.463.1.408-.212.805-.441,1.2-.687a23.36,23.36,0,0,0-1.762-3.852c-.836.02-1.668.034-2.5.051a10.565,10.565,0,0,0-1.183,3.508c.273.728,1.233.57,1.816.849a32.666,32.666,0,0,1-4.907.1c.9-.32,1.968-.58,2.352-1.577,1.4-2.864,2.477-5.877,3.838-8.758m-.738,3.161q-.455,1.067-.88,2.143c.671,0,1.345-.007,2.019-.017A20.113,20.113,0,0,0,343.752,160.358Z" transform="translate(177.922 -451.935)" fill="#fff"/>
    <path id="Path_14373" data-name="Path 14373" d="M375.463,156.68c1.884.458,3.838.169,5.756.249,1.307-.061,2.763.276,3.9-.549-.1,1.264-.168,2.534-.28,3.8-.475-.967-.91-2.116-1.975-2.571-.583-.3-1.7-.209-1.557.681-.024,2.575-.1,5.159.044,7.73.067.856,1.233.6,1.783.893a43.686,43.686,0,0,1-5.978.078c.681-.317,1.981-.236,1.84-1.318.037-2.723.084-5.449-.057-8.169a3.24,3.24,0,0,0-1.917.307,7.286,7.286,0,0,0-1.8,2.318C375.3,158.978,375.4,157.829,375.463,156.68Z" transform="translate(153.443 -451.412)" fill="#fff"/>
    <path id="Path_14374" data-name="Path 14374" d="M427.72,157.051a5.234,5.234,0,0,1,6.527,4.917c.283,3.353-3.124,6.214-6.372,5.688a5.273,5.273,0,0,1-4.576-5.368,5.383,5.383,0,0,1,4.421-5.237m-.425.59a3.484,3.484,0,0,0-1.5,2.959,7.64,7.64,0,0,0,1.469,5.722,2.325,2.325,0,0,0,3.282.276,5.125,5.125,0,0,0,1.254-3.616,6.268,6.268,0,0,0-1.513-4.735A2.767,2.767,0,0,0,427.3,157.64Z" transform="translate(121.57 -451.729)" fill="#fff"/>
    <path id="Path_14375" data-name="Path 14375" d="M494.855,158.041c.192-.35.263-.822.623-1.051.357.219.448.677.647,1.024,1.078,2.409,2.2,4.8,3.309,7.195.445.826.974,1.995,2.1,1.924.465.007,1.26-.074,1.21-.711.142-2.019,0-4.047.061-6.073a8.067,8.067,0,0,0-.165-2.369,13.729,13.729,0,0,0-1.277-.644,52.653,52.653,0,0,1,5.409.1,9.316,9.316,0,0,0-1.6.509,16.808,16.808,0,0,0-.168,3.774,36.778,36.778,0,0,0,.118,4.839,3.355,3.355,0,0,0,2.514.229c1.442-.324,2.244-1.655,2.979-2.81-.03,1.142-.061,2.288-.078,3.431-4.711.037-9.426.088-14.133-.024.414-.158.836-.31,1.264-.448a18.3,18.3,0,0,0-1.729-4.014c-.839.01-1.675.013-2.507.024-.445,1.129-1.183,2.214-1.2,3.464.168.8,1.237.62,1.8.917a35.545,35.545,0,0,1-4.9.091c.815-.327,1.85-.492,2.244-1.4,1.3-2.588,2.332-5.311,3.481-7.973m-.27,2.211c-.307.708-.607,1.422-.9,2.136.677-.01,1.358-.02,2.039-.037A18.8,18.8,0,0,0,494.586,160.252Z" transform="translate(77.919 -451.816)" fill="#fff"/>
    <path id="Path_14376" data-name="Path 14376" d="M305.27,158.052c1.2-.088,2.413-.084,3.623-.061,2.005,2.345,4.148,4.57,6.224,6.851a32.885,32.885,0,0,0-.044-5.281c-.084-.923-1.041-1.2-1.725-1.577,1.328,0,2.652,0,3.98,0l.007.165c-.634.233-1.449.492-1.554,1.277-.4,3.019-.084,6.079-.182,9.116-2.716-2.75-5.122-5.786-7.822-8.549-.027,1.692-.017,3.383-.027,5.072a3.042,3.042,0,0,0,.465,1.995c.475.337,1,.6,1.493.91a16.916,16.916,0,0,1-4.367,0c.5-.31,1.038-.573,1.53-.906a3.21,3.21,0,0,0,.452-1.981c0-1.917-.013-3.835-.007-5.752A11.161,11.161,0,0,0,305.27,158.052Z" transform="translate(199.821 -452.471)" fill="#fff"/>
    <path id="Path_14377" data-name="Path 14377" d="M405.56,158.061a27.194,27.194,0,0,1,5.442-.01c-.65.239-1.7.266-1.624,1.223-.081,2.473-.061,4.96-.013,7.434-.091.94.944,1.014,1.564,1.328-1.789.034-3.575.04-5.361,0,.61-.33,1.762-.34,1.594-1.318q.035-3.72,0-7.447C407.322,158.3,406.17,158.317,405.56,158.061Z" transform="translate(133.327 -452.433)" fill="#fff"/>
    <path id="Path_14378" data-name="Path 14378" d="M455.84,157.993c1.23-.02,2.46-.027,3.69.013,2.005,2.325,4.074,4.6,6.224,6.79a32.618,32.618,0,0,0-.128-5.446c-.172-.829-1.092-1-1.729-1.345a34.5,34.5,0,0,1,4.256.057c-.516.263-1.193.324-1.543.832a3.993,3.993,0,0,0-.394,2.106c0,2.511.044,5.021-.017,7.532-2.719-2.753-5.142-5.786-7.832-8.573.051,2.13-.142,4.276.094,6.4.131.9,1.109,1.119,1.8,1.466-1.358.539-2.874.209-4.3.168.714-.532,1.917-.822,1.87-1.921.1-2.248.179-4.5.064-6.746A13.913,13.913,0,0,0,455.84,157.993Z" transform="translate(99.991 -452.465)" fill="#fff"/>
    <path id="Path_14379" data-name="Path 14379" d="M78.047,172.05a4.958,4.958,0,0,1,1.715-4.65c.465,1.958,1.008,4.411-.505,6.056.145.344.293.687.448,1.031a15.224,15.224,0,0,1,1.254-3.289c1.156,1.857,1.752,4.425.546,6.4a4.433,4.433,0,0,1,.8,1.773c-2.834.206-5-2.3-5.978-4.7a13.093,13.093,0,0,1,3.882,1.749c-.125-.431-.246-.863-.367-1.294-2.77.158-4.59-2.662-5.213-5.045A12.317,12.317,0,0,1,78.047,172.05Z" transform="translate(352.738 -458.718)" fill="#fff"/>
    <path id="Path_14380" data-name="Path 14380" d="M247.379,167.38A5.182,5.182,0,0,1,249.152,172a12.542,12.542,0,0,1,3.441-1.928c-.714,2.352-2.389,5.065-5.136,5.119q.182-.915.408-1.816C246.416,171.7,246.975,169.338,247.379,167.38Z" transform="translate(238.503 -458.705)" fill="#fff"/>
    <path id="Path_14381" data-name="Path 14381" d="M235.828,178.65a4.976,4.976,0,0,1,.95,5.227,9.017,9.017,0,0,1,3.912-1.628c-.96,1.89-2.342,3.761-4.431,4.458a2.965,2.965,0,0,1-1.668-.061c-.179.465-.361.93-.543,1.4a12.757,12.757,0,0,1,4.216-1.334c-1.206,1.978-3.08,3.859-5.476,4.172-.468.034-1.425.108-1.159-.654a7.056,7.056,0,0,1,1.014-1.2c-1.014-2.184.024-4.731,1.365-6.531a8.289,8.289,0,0,1,.8,3.619q.369-.5.728-1C234.191,183.122,235.07,180.679,235.828,178.65Z" transform="translate(248.676 -466.177)" fill="#fff"/>
    <path id="Path_14382" data-name="Path 14382" d="M90.972,195.629a5.283,5.283,0,0,1,.226-5.449c1.088,1.891,2.339,4.276,1.233,6.43.448.536.886,1.072,1.291,1.641a3.219,3.219,0,0,1-2.5.03,9.066,9.066,0,0,1-4.4-3.966A14.618,14.618,0,0,1,90.972,195.629Z" transform="translate(344.656 -473.822)" fill="#fff"/>
    <path id="Path_14383" data-name="Path 14383" d="M99.976,201.15c1.456,1.719,3.131,3.993,2.332,6.359a7.972,7.972,0,0,1,1.641,1.675c-2.9,1.176-5.87-1-7.639-3.168a15.214,15.214,0,0,1,4.556.829A5.414,5.414,0,0,1,99.976,201.15Z" transform="translate(338.364 -481.095)" fill="#fff"/>
    <path id="Path_14384" data-name="Path 14384" d="M211.609,205.323a11.645,11.645,0,0,1,2.457-4.3,5.641,5.641,0,0,1-.822,5.752,13.385,13.385,0,0,1,4.465-.832,9.367,9.367,0,0,1-4.836,3.37,2.888,2.888,0,0,1-2.73-.374,8.773,8.773,0,0,1-1.759,1.432,13.921,13.921,0,0,1,5.277-.317,9.6,9.6,0,0,1-6.693,2.7c-.657-.047-1.988-.4-1.324-1.264a11.574,11.574,0,0,1,1.82-.842,3.307,3.307,0,0,1,.064-2.083,14.276,14.276,0,0,1,3.313-4.145,6.44,6.44,0,0,1-.347,4.037c.414-.347.832-.684,1.247-1.024A3.673,3.673,0,0,1,211.609,205.323Z" transform="translate(265.994 -481.009)" fill="#fff"/>
    <path id="Path_14385" data-name="Path 14385" d="M113.72,217.171a5.151,5.151,0,0,1-2.436-5.911c1.783,1.567,3.724,3.552,3.565,6.116a6.875,6.875,0,0,1,2.029,1.51,4.892,4.892,0,0,1-4.627.189,10.99,10.99,0,0,1-3.751-2.224A12.924,12.924,0,0,1,113.72,217.171Z" transform="translate(330.282 -487.798)" fill="#fff"/>
    <path id="Path_14386" data-name="Path 14386" d="M309.4,214a5.353,5.353,0,0,1,5.062-.725c1.486.145.731,1.958.873,2.932-.853-1.119-1.6-2.8-3.272-2.693-1.291-.229-1.965,1.439-1.21,2.356,1.217,1.57,3.518,1.773,4.687,3.4a2.707,2.707,0,0,1-.91,3.72,5.85,5.85,0,0,1-6.035-.128c-.02-.977-.057-1.958-.054-2.935.869.91,1.422,2.106,2.44,2.871.822.61,2.318.637,2.8-.411a2.282,2.282,0,0,0-.455-2.221c-1.179-1.267-2.986-1.692-4.175-2.949A2.31,2.31,0,0,1,309.4,214Z" transform="translate(197.653 -488.93)" fill="#fff"/>
    <path id="Path_14387" data-name="Path 14387" d="M333.842,214.857c2.089-2.174,5.516-2.295,8.152-1.132.044.927.094,1.853.131,2.78-.6-.7-1.109-1.479-1.756-2.137a3.015,3.015,0,0,0-4.438.276,6.226,6.226,0,0,0-.842,4.108,5.091,5.091,0,0,0,1.924,4.051,3.129,3.129,0,0,0,3.734-.367c.6-.654,1.031-1.429,1.564-2.13-.044.9-.1,1.789-.158,2.686-2.349.987-5.294,1.257-7.484-.246A5.361,5.361,0,0,1,333.842,214.857Z" transform="translate(181.784 -488.948)" fill="#fff"/>
    <path id="Path_14388" data-name="Path 14388" d="M407.719,213.052a5.235,5.235,0,0,1,6.527,4.9c.293,3.363-3.127,6.231-6.383,5.7a5.265,5.265,0,0,1-4.566-5.348,5.383,5.383,0,0,1,4.421-5.254m-.428.59a3.521,3.521,0,0,0-1.5,3,7.629,7.629,0,0,0,1.473,5.685,2.329,2.329,0,0,0,3.259.3,5.362,5.362,0,0,0,1.284-3.963,6.1,6.1,0,0,0-1.516-4.408A2.779,2.779,0,0,0,407.291,213.642Z" transform="translate(134.832 -488.859)" fill="#fff"/>
    <path id="Path_14389" data-name="Path 14389" d="M442,213.1a5.265,5.265,0,0,1,6.706,4.529,5.642,5.642,0,0,1-6.19,6.049,5.321,5.321,0,0,1-4.775-5.358A5.4,5.4,0,0,1,442,213.1m-.367.607a3.539,3.539,0,0,0-1.361,2.908c-.142,2.012.081,4.283,1.557,5.8a2.283,2.283,0,0,0,3.262.1c1.153-1.2,1.179-2.982,1.122-4.543a5.375,5.375,0,0,0-1.557-3.815A2.738,2.738,0,0,0,441.636,213.707Z" transform="translate(111.991 -488.86)" fill="#fff"/>
    <path id="Path_14390" data-name="Path 14390" d="M363.62,214c1.82-.044,3.643-.037,5.463-.007a14.268,14.268,0,0,0-1.388.62,13.522,13.522,0,0,0-.276,4.057c1.752.037,3.5.024,5.257.024a22.251,22.251,0,0,0-.131-4.024,5.069,5.069,0,0,0-1.5-.593,50.529,50.529,0,0,1,5.442-.084c-.6.327-1.732.367-1.564,1.318a73.611,73.611,0,0,0,.017,7.761c.078.755,1.062.671,1.57,1a47.351,47.351,0,0,1-5.49-.094c.5-.212,1.142-.179,1.54-.573a27.611,27.611,0,0,0,.111-4.158c-1.742,0-3.484-.007-5.227.007a18.6,18.6,0,0,0,.1,3.8c.071.745,1.031.7,1.537,1.014-1.81.03-3.623.057-5.436-.027a15.121,15.121,0,0,0,1.52-.6,25.312,25.312,0,0,0,.152-4.408,26.3,26.3,0,0,0-.145-4.4A16.719,16.719,0,0,0,363.62,214Z" transform="translate(161.134 -489.586)" fill="#fff"/>
    <path id="Path_14391" data-name="Path 14391" d="M471.693,214.043a29.619,29.619,0,0,1,5.439.02c-.687.222-1.847.219-1.725,1.257-.03,2.467-.064,4.944.017,7.41.047.987,1.378.785,2.072.768,1.712-.091,2.763-1.611,3.552-2.949-.037,1.163-.074,2.325-.1,3.488-3.087,0-6.177.121-9.257-.064.61-.253,1.628-.33,1.513-1.243.034-2.484.03-4.971,0-7.454C473.321,214.36,472.313,214.279,471.693,214.043Z" transform="translate(89.482 -489.567)" fill="#fff"/>
    <path id="Path_14392" data-name="Path 14392" d="M149.576,222.359a15.749,15.749,0,0,1,3.046-2.292,5.322,5.322,0,0,1-4.02,5.6,15.186,15.186,0,0,1,5.547.519,7.113,7.113,0,0,1-3.218,1.452c-1.823.435-3.99.647-5.513-.671a18.119,18.119,0,0,1-4.536,2.241,12.281,12.281,0,0,1,5.874,2.561c-.131.253-.388.758-.516,1.011a10.289,10.289,0,0,0-14.763.04c-.172-.347-.347-.694-.522-1.041a11.866,11.866,0,0,1,5.83-2.561,21.288,21.288,0,0,1-4.475-2.238c-1.7,1.345-3.99,1.109-5.938.549a9.432,9.432,0,0,1-2.891-1.328,16.072,16.072,0,0,1,5.314-.566,5.461,5.461,0,0,1-3.724-5.607,13.751,13.751,0,0,1,4.418,4,2.4,2.4,0,0,1,.179,1.638,16.124,16.124,0,0,1,2.436.741,6.342,6.342,0,0,1-2.585-4.014,14.072,14.072,0,0,1,5.031,2.891,3.858,3.858,0,0,1,1.072,1.931c-.634.013-1.264.017-1.894.013a12.158,12.158,0,0,0,5.082,1.624,13.723,13.723,0,0,0,5.4-1.634,16.73,16.73,0,0,1-2.1-.02,3.946,3.946,0,0,1,1.011-1.853,14.65,14.65,0,0,1,5.075-2.935,7.016,7.016,0,0,1-2.7,4.182,8.892,8.892,0,0,1,2.49-.917C147.733,224.343,148.7,223.231,149.576,222.359Z" transform="translate(320.35 -493.612)" fill="#fff"/>
    <path id="Path_14393" data-name="Path 14393" d="M67.067,236.74a50.013,50.013,0,0,0,3.9,5.109c.344.485,1.1.9.9,1.587-1.038,1.314-2.2,2.527-3.215,3.865.081,2.032.142,4.061.233,6.093A42.285,42.285,0,0,1,58.7,241.717c2.457.613,4.869,1.409,7.323,2.049C66.36,241.421,66.724,239.082,67.067,236.74Z" transform="translate(363.3 -504.691)" fill="#fff"/>
    <path id="Path_14394" data-name="Path 14394" d="M242.978,240.154c.849-1.126,1.564-2.349,2.4-3.484.435,2.359.728,4.738,1.122,7.107,2.43-.772,4.9-1.429,7.34-2.163a42.448,42.448,0,0,1-10.214,11.731q.086-3.068.219-6.133c-1.156-1.355-2.292-2.726-3.444-4.081C241.219,242.1,242.146,241.169,242.978,240.154Z" transform="translate(242.831 -504.645)" fill="#fff"/>
    <path id="Path_14395" data-name="Path 14395" d="M91.78,252.868c2.079-2.524,4.206-5.011,6.325-7.5a31.958,31.958,0,0,0,39.67-.01c2.126,2.487,4.263,4.974,6.325,7.518a43.148,43.148,0,0,1-20.57,8.812A42.18,42.18,0,0,1,91.78,252.868Z" transform="translate(341.368 -510.407)" fill="#fff"/>
    <path id="Path_14396" data-name="Path 14396" d="M90.19,269.65a18.543,18.543,0,0,1,2.645,1.992c-.839.923-1.618,1.894-2.44,2.824C90.348,272.858,90.264,271.254,90.19,269.65Z" transform="translate(342.422 -526.511)" fill="#fff"/>
    <path id="Path_14397" data-name="Path 14397" d="M240.82,271.461c.866-.64,1.732-1.274,2.6-1.911-.027,1.624-.074,3.252-.236,4.869C242.4,273.425,241.605,272.448,240.82,271.461Z" transform="translate(242.552 -526.445)" fill="#fff"/>
  </g>
</svg>
